<?xml version="1.0" encoding="utf-8"?>
<!-- Generator: Adobe Illustrator 25.3.1, SVG Export Plug-In . SVG Version: 6.00 Build 0)  -->
<svg version="1.1" id="图层_1" xmlns="http://www.w3.org/2000/svg" xmlns:xlink="http://www.w3.org/1999/xlink" x="0px" y="0px"
	 viewBox="0 0 170 64" style="enable-background:new 0 0 170 64;" xml:space="preserve">
<style type="text/css">
	.st0{fill:#0013FF;}
	.st1{fill:#222222;}
</style>
<g>
	<g>
		<path class="st0" d="M17.5,19c-2-2-5.3-2-7.4,0L2,27.1c-2.7,2.7-2.7,7.1,0,9.8l8.1,8.1c2,2,5.3,2,7.4,0l13-13L17.5,19z"/>
		<path class="st0" d="M32,30.5l13-13c2-2,2-5.3,0-7.4L36.9,2c-2.7-2.7-7.1-2.7-9.8,0L19,10.1c-2,2-2,5.3,0,7.4L32,30.5z"/>
		<path class="st0" d="M32,33.5l-13,13c-2,2-2,5.3,0,7.4l8.1,8.1c2.7,2.7,7.1,2.7,9.8,0l8.1-8.1c2-2,2-5.3,0-7.4L32,33.5z"/>
		<path class="st0" d="M62,27.1L53.9,19c-2-2-5.3-2-7.4,0l-13,13l13,13c2,2,5.3,2,7.4,0l8.1-8.1C64.7,34.2,64.7,29.8,62,27.1z"/>
	</g>
	<g>
		<g>
			<path class="st1" d="M90,28.1h-4.3l-6.9-12.5v12.5h-4.1v-18h5.5l5.7,10.3V10.2H90V28.1z"/>
			<path class="st1" d="M102.6,28.1H93V25h2.6V13.3H93v-3.1h9.7v3.1H100V25h2.6V28.1z"/>
			<path class="st1" d="M113.4,28.5c-2.7,0-4.8-0.8-6.4-2.4c-1.6-1.6-2.4-3.9-2.4-6.9c0-2.8,0.8-5.1,2.4-6.8
				c1.6-1.7,3.7-2.5,6.4-2.5c0.7,0,1.4,0,1.9,0.1c0.6,0.1,1.1,0.2,1.6,0.3c0.4,0.1,0.9,0.3,1.3,0.5c0.5,0.2,0.9,0.4,1.2,0.5v4.3H119
				c-0.2-0.2-0.5-0.4-0.8-0.7c-0.3-0.3-0.7-0.5-1.1-0.8c-0.4-0.3-0.9-0.5-1.4-0.7c-0.5-0.2-1-0.3-1.6-0.3c-0.7,0-1.2,0.1-1.8,0.3
				c-0.5,0.2-1.1,0.6-1.5,1.1c-0.5,0.5-0.8,1.1-1.1,1.9c-0.3,0.8-0.4,1.7-0.4,2.8c0,1.1,0.1,2.1,0.4,2.8s0.7,1.4,1.2,1.8
				c0.5,0.5,1,0.8,1.6,1c0.6,0.2,1.1,0.3,1.7,0.3c0.6,0,1.2-0.1,1.7-0.3c0.5-0.2,1-0.4,1.4-0.7c0.4-0.2,0.8-0.5,1.1-0.8
				c0.3-0.3,0.6-0.5,0.8-0.7h0.4V27c-0.3,0.2-0.7,0.3-1.1,0.5c-0.4,0.2-0.9,0.4-1.3,0.5c-0.6,0.2-1.1,0.3-1.6,0.4
				C114.9,28.4,114.2,28.5,113.4,28.5z"/>
			<path class="st1" d="M122.1,28.1v-18h12.1v3.4h-7.7v3.1h7.1v3.4h-7.1v4.5h7.7v3.4H122.1z"/>
		</g>
		<g>
			<path class="st1" d="M92.3,54.2H88V42.7l-3.1,7.4h-3l-3.1-7.4v11.4h-4.1V36.9h5l3.8,8.5l3.8-8.5h5V54.2z"/>
			<path class="st1" d="M94,54.2l5.8-17.3h4.7l5.8,17.3h-4.5l-1.1-3.5h-5.4l-1.1,3.5H94z M103.9,47.5l-1.8-5.7l-1.8,5.7H103.9z"/>
			<path class="st1" d="M115.4,54.2v-14h-5.1v-3.3h14.5v3.3h-5.1v14H115.4z"/>
			<path class="st1" d="M142.6,54.2h-5.3l-4.8-6.3H131v6.3h-4.3V36.9h6.9c1,0,1.8,0.1,2.5,0.2c0.7,0.1,1.4,0.4,2,0.7
				c0.6,0.4,1.1,0.9,1.5,1.5c0.4,0.6,0.5,1.4,0.5,2.3c0,1.3-0.3,2.4-0.9,3.2c-0.6,0.8-1.4,1.5-2.4,2L142.6,54.2z M135.6,42.2
				c0-0.4-0.1-0.8-0.2-1.1c-0.2-0.3-0.4-0.6-0.8-0.7c-0.3-0.1-0.6-0.2-0.9-0.2c-0.3,0-0.7,0-1.2,0H131v4.7h1.2c0.6,0,1.1,0,1.5-0.1
				c0.4-0.1,0.8-0.2,1.1-0.5c0.3-0.2,0.5-0.5,0.6-0.8C135.6,43.1,135.6,42.7,135.6,42.2z"/>
			<path class="st1" d="M152.5,54.2h-9.3v-3h2.5V39.9h-2.5v-3h9.3v3H150v11.2h2.5V54.2z"/>
			<path class="st1" d="M170,54.2h-5l-3.3-5.5l-3.4,5.5h-4.8l5.6-8.7l-5.4-8.6h5l3.1,5.2l3.2-5.2h4.8l-5.4,8.4L170,54.2z"/>
		</g>
	</g>
</g>
</svg>
