<?xml version="1.0" encoding="utf-8"?>
<svg version="1.1" xmlns="http://www.w3.org/2000/svg" xmlns:xlink="http://www.w3.org/1999/xlink" x="0px" y="0px" viewBox="0 0 1024 1024" xml:space="preserve">
<g>
	<path fill="#0013FF" d="M279.5,304.2c-32.5-32.5-85.2-32.5-117.7,0L32.5,433.5c-43.4,43.4-43.4,113.6,0,157l129.3,129.3c32.5,32.5,85.2,32.5,117.7,0L487.3,512L279.5,304.2z"/>
	<path fill="#0013FF" d="M512,487.3l207.8-207.8c32.5-32.5,32.5-85.2,0-117.7L590.5,32.5c-43.4-43.4-113.6-43.4-157,0L304.2,161.8c-32.5,32.5-32.5,85.2,0,117.7L512,487.3z"/>
	<path fill="#0013FF" d="M512,536.7L304.2,744.5c-32.5,32.5-32.5,85.2,0,117.7l129.3,129.3c43.4,43.4,113.6,43.4,157,0l129.3-129.3c32.5-32.5,32.5-85.2,0-117.7L512,536.7z"/>
	<path fill="#0013FF" d="M991.5,433.5L862.2,304.2c-32.5-32.5-85.2-32.5-117.7,0L536.7,512l207.8,207.8c32.5,32.5,85.2,32.5,117.7,0l129.3-129.3C1034.8,547.1,1034.8,476.9,991.5,433.5z"/>
</g>
</svg>
